<?xml version="1.0" encoding="UTF-8"?>
<svg version="1.1" xmlns="http://www.w3.org/2000/svg" width="400" height="133">
<path d="M0 0 C0.969375 0.185625 1.93875 0.37125 2.9375 0.5625 C3.948125 0.706875 4.95875 0.85125 6 1 C6.33 0.67 6.66 0.34 7 0 C9.16480797 -0.0989294 11.33293785 -0.129711 13.5 -0.125 C14.6859375 -0.12757812 15.871875 -0.13015625 17.09375 -0.1328125 C20 0 20 0 21 1 C21.04092937 3.33297433 21.04241723 5.66705225 21 8 C20.34 8 19.68 8 19 8 C19.33 8.66 19.66 9.32 20 10 C20.804375 9.95875 21.60875 9.9175 22.4375 9.875 C27.30131849 10.0456603 32.82160142 10.29286646 36.76953125 13.38671875 C38 15 38 15 38 18 C40.99332739 17.0022242 41.94766315 16.2477975 44 14 C44.99 14.33 45.98 14.66 47 15 C47 16.32 47 17.64 47 19 C46.34 19 45.68 19 45 19 C45.11470137 20.75070517 45.24219028 22.50057536 45.375 24.25 C45.47941406 25.71179688 45.47941406 25.71179688 45.5859375 27.203125 C45.98465249 29.89633189 46.63507063 31.66963279 48 34 C52.75404012 34.49544197 52.75404012 34.49544197 56.8125 32.5 C57.204375 32.005 57.59625 31.51 58 31 C58.66 31 59.32 31 60 31 C59.5359375 29.6078125 59.5359375 29.6078125 59.0625 28.1875 C58.375 26.125 57.6875 24.0625 57 22 C55.35 22 53.7 22 52 22 C51.505 20.02 51.505 20.02 51 18 C52.5625 17.3125 52.5625 17.3125 55 17 C57.35981813 17.93578995 59.69631264 18.93347808 62 20 C64.42797311 20 66.62907005 19.49914315 69 19 C69.99 22.465 69.99 22.465 71 26 C71.804375 25.195625 72.60875 24.39125 73.4375 23.5625 C77 20 77 20 79.375 19.8125 C82 20 82 20 85 22 C85.6875 25.625 85.6875 25.625 86 29 C86.66 29 87.32 29 88 29 C88.495 32.96 88.495 32.96 89 37 C89.66 37 90.32 37 91 37 C91 38.65 91 40.3 91 42 C89.35 42.33 87.7 42.66 86 43 C85.49339844 41.41058594 85.49339844 41.41058594 84.9765625 39.7890625 C84.52636008 38.40093836 84.07582175 37.01292313 83.625 35.625 C83.40328125 34.92632812 83.1815625 34.22765625 82.953125 33.5078125 C81.62845587 29.37952197 81.62845587 29.37952197 79 26 C78.67 26.66 78.34 27.32 78 28 C77.34 28 76.68 28 76 28 C75.896875 28.721875 75.79375 29.44375 75.6875 30.1875 C74.91258191 33.35761946 74.04269518 35.44663103 72 38 C70.35 38 68.7 38 67 38 C66.34 34.7 65.68 31.4 65 28 C64.5875 29.464375 64.175 30.92875 63.75 32.4375 C63.046875 34.93359375 63.046875 34.93359375 62 37 C59.890625 37.78515625 59.890625 37.78515625 58 38 C58 38.66 58 39.32 58 40 C48.26004228 40.57293869 48.26004228 40.57293869 44 37 C44 36.34 44 35.68 44 35 C43.34 35 42.68 35 42 35 C41.505 31.535 41.505 31.535 41 28 C40.34 28 39.68 28 39 28 C38.505 27.01 38.505 27.01 38 26 C37.67 26.66 37.34 27.32 37 28 C36.34 28 35.68 28 35 28 C34.34 29.32 33.68 30.64 33 32 C32.34 32 31.68 32 31 32 C31 32.66 31 33.32 31 34 C27.28026121 36.84450614 24.62609198 37.3227506 20 37 C20.125 34.6875 20.125 34.6875 21 32 C23.875 30.375 23.875 30.375 27 29 C28.01801357 28.01834406 29.0246803 27.02408568 30 26 C30.66 26 31.32 26 32 26 C32.66 24.02 33.32 22.04 34 20 C33.01 19.34 32.02 18.68 31 18 C31 17.34 31 16.68 31 16 C25.06 16 19.12 16 13 16 C12.01515423 11.07577115 11.96657707 10.18645898 14 6 C11.36 6 8.72 6 6 6 C6.78525465 10.04293965 7.57933552 14.08409724 8.375 18.125 C8.59671875 19.26710938 8.8184375 20.40921875 9.046875 21.5859375 C9.37558594 23.24882813 9.37558594 23.24882813 9.7109375 24.9453125 C10.00943604 26.46922607 10.00943604 26.46922607 10.31396484 28.02392578 C10.96191603 31.06100404 10.96191603 31.06100404 12.07275391 34.16748047 C13.08519776 37.26025919 13.15394242 39.76720918 13 43 C11.68 43 10.36 43 9 43 C7.094753 37.89665983 5.57410977 33.53657294 6 28 C5.34 28 4.68 28 4 28 C3.87882812 27.08476563 3.75765625 26.16953125 3.6328125 25.2265625 C3.46523438 24.03804687 3.29765625 22.84953125 3.125 21.625 C2.96257812 20.44164063 2.80015625 19.25828125 2.6328125 18.0390625 C2.2697415 14.90433341 2.2697415 14.90433341 0 13 C-2.10820797 13.3185177 -2.10820797 13.3185177 -4 14 C-4.75 11.75 -4.75 11.75 -5 9 C-3.71034824 7.62437146 -2.37310707 6.29233607 -1 5 C-0.20318682 2.35815459 -0.20318682 2.35815459 0 0 Z " fill="#FFD91C" transform="translate(281,40)"/>
<path d="M0 0 C0.804375 0.185625 1.60875 0.37125 2.4375 0.5625 C3.283125 0.706875 4.12875 0.85125 5 1 C5.33 0.67 5.66 0.34 6 0 C8.35313555 -0.07271741 10.70833668 -0.08370868 13.0625 -0.0625 C14.35285156 -0.05347656 15.64320313 -0.04445312 16.97265625 -0.03515625 C17.97167969 -0.02355469 18.97070312 -0.01195312 20 0 C20 3.3 20 6.6 20 10 C20.969375 9.979375 21.93875 9.95875 22.9375 9.9375 C26 10 26 10 27 11 C28.51165654 11.39148761 30.03469632 11.73972457 31.5625 12.0625 C32.38878906 12.23910156 33.21507812 12.41570313 34.06640625 12.59765625 C34.70449219 12.73042969 35.34257812 12.86320312 36 13 C36 13.66 36 14.32 36 15 C36.66 15 37.32 15 38 15 C38.495 16.485 38.495 16.485 39 18 C39.99 17.67 40.98 17.34 42 17 C42 16.34 42 15.68 42 15 C43.32 14.67 44.64 14.34 46 14 C46.5625 15.9375 46.5625 15.9375 47 18 C46.505 18.495 46.505 18.495 46 19 C45.76572222 21.01594582 45.58663876 23.038474 45.4375 25.0625 C45.35371094 26.16722656 45.26992187 27.27195312 45.18359375 28.41015625 C45.09271484 29.69212891 45.09271484 29.69212891 45 31 C45.99 31.33 46.98 31.66 48 32 C48 32.66 48 33.32 48 34 C52.65951036 34.3849808 52.65951036 34.3849808 56.9375 32.875 C58.48138276 30.15050101 58.3267107 28.07108055 58 25 C55.77810176 22.77810176 53.91517292 22.07401108 51 21 C51 20.01 51 19.02 51 18 C54.81489674 16.53273202 57.29011622 17.56663581 61 19 C61 19.66 61 20.32 61 21 C61.66 21 62.32 21 63 21 C64.35113662 25.05340986 64.5512044 28.76168512 64 33 C61.94161475 36.33600367 60.2606736 37.8262176 57 40 C54.73828125 40.1953125 54.73828125 40.1953125 52.3125 40.125 C51.50425781 40.10695312 50.69601563 40.08890625 49.86328125 40.0703125 C49.24839844 40.04710937 48.63351563 40.02390625 48 40 C48 39.34 48 38.68 48 38 C47.071875 37.814375 47.071875 37.814375 46.125 37.625 C44 37 44 37 42 35 C42 34.01 42 33.02 42 32 C41.34 32 40.68 32 40 32 C39.34 30.02 38.68 28.04 38 26 C37.443125 26.7425 36.88625 27.485 36.3125 28.25 C34.04540196 30.94600849 31.89247608 32.99751656 29 35 C28.01 35 27.02 35 26 35 C26 35.66 26 36.32 26 37 C24.02 37 22.04 37 20 37 C20.33 35.35 20.66 33.7 21 32 C22.65 31.67 24.3 31.34 26 31 C26 30.34 26 29.68 26 29 C26.969375 28.2575 27.93875 27.515 28.9375 26.75 C31.59729339 24.65345698 31.95610421 24.16617691 32.875 20.6875 C32.91625 19.800625 32.9575 18.91375 33 18 C32.01 18 31.02 18 30 18 C30 17.34 30 16.68 30 16 C24.06 16 18.12 16 12 16 C11.67 14.35 11.34 12.7 11 11 C11.66 11 12.32 11 13 11 C13.33 9.02 13.66 7.04 14 5 C11.36 5.33 8.72 5.66 6 6 C6.96244188 12.80876436 7.9019225 19.4435078 10 26 C11.68481954 31.35177971 12.52053882 36.43572679 13 42 C11.02 42.495 11.02 42.495 9 43 C7.14223235 39.86501708 6.79859524 37.62528568 7 34 C6.34 34 5.68 34 5 34 C4.86722656 33.14535156 4.73445312 32.29070312 4.59765625 31.41015625 C4.33275391 29.75306641 4.33275391 29.75306641 4.0625 28.0625 C3.88847656 26.96035156 3.71445313 25.85820313 3.53515625 24.72265625 C3.28154864 22.09573071 3.28154864 22.09573071 2 21 C1.63239269 18.67182036 1.29758419 16.3381615 1 14 C0.01 14 -0.98 14 -2 14 C-2.99 13.67 -3.98 13.34 -5 13 C-5.25 10.75 -5.25 10.75 -5 8 C-3.70896357 6.6256709 -2.3743291 5.29103643 -1 4 C-0.2127322 1.8618034 -0.2127322 1.8618034 0 0 Z " fill="#FFD91C" transform="translate(166,40)"/>
<path d="M0 0 C2.33333333 0 4.66666667 0 7 0 C8.48693359 -0.01740234 8.48693359 -0.01740234 10.00390625 -0.03515625 C11.17824219 -0.04417969 12.35257813 -0.05320313 13.5625 -0.0625 C15.32787109 -0.07990234 15.32787109 -0.07990234 17.12890625 -0.09765625 C20 0 20 0 21 1 C21.04092937 3.33297433 21.04241723 5.66705225 21 8 C20.34 8 19.68 8 19 8 C19.33 8.66 19.66 9.32 20 10 C21.134375 9.979375 22.26875 9.95875 23.4375 9.9375 C27 10 27 10 28 11 C29.51165654 11.39148761 31.03469632 11.73972457 32.5625 12.0625 C33.38878906 12.23910156 34.21507812 12.41570313 35.06640625 12.59765625 C35.70449219 12.73042969 36.34257813 12.86320312 37 13 C37.495 15.475 37.495 15.475 38 18 C38.66 18 39.32 18 40 18 C40 17.34 40 16.68 40 16 C41.32 16 42.64 16 44 16 C44 16.66 44 17.32 44 18 C44.66 18 45.32 18 46 18 C46.08636719 18.75925781 46.17273438 19.51851562 46.26171875 20.30078125 C46.40222656 21.29464844 46.54273438 22.28851563 46.6875 23.3125 C46.81511719 24.29863281 46.94273438 25.28476563 47.07421875 26.30078125 C47.9074695 29.67456775 47.9074695 29.67456775 53 32 C53.99 27.38 54.98 22.76 56 18 C57.32 18 58.64 18 60 18 C60 18.66 60 19.32 60 20 C60.66 20 61.32 20 62 20 C62.495 26.93 62.495 26.93 63 34 C63.99 34 64.98 34 66 34 C65.67 35.65 65.34 37.3 65 39 C63.68 39.33 62.36 39.66 61 40 C59.68 38.02 58.36 36.04 57 34 C56.1646875 34.99 56.1646875 34.99 55.3125 36 C53 38 53 38 50.5 38.5 C47.21923551 37.8438471 46.02202235 36.62114008 44 34 C44 33.01 44 32.02 44 31 C43.34 31 42.68 31 42 31 C41.34 28.36 40.68 25.72 40 23 C39.34 23 38.68 23 38 23 C37.505 25.475 37.505 25.475 37 28 C36.34 28 35.68 28 35 28 C34.34 29.32 33.68 30.64 33 32 C32.34 32 31.68 32 31 32 C31 32.66 31 33.32 31 34 C27.58168085 36.5393228 25.24223102 37.3636198 21 37 C20.67 36.01 20.34 35.02 20 34 C21 32 21 32 23.75 30.6875 C28.45495503 28.24454258 32.08843592 25.03957803 34 20 C34 19.34 34 18.68 34 18 C33.01 18 32.02 18 31 18 C31 17.34 31 16.68 31 16 C25.06 16 19.12 16 13 16 C12 11 12 11 13 8 C13.66 8 14.32 8 15 8 C15 7.01 15 6.02 15 5 C10.545 5.495 10.545 5.495 6 6 C6 7.98 6 9.96 6 12 C6.66 12 7.32 12 8 12 C8.12117188 12.94101562 8.24234375 13.88203125 8.3671875 14.8515625 C8.53476562 16.09679687 8.70234375 17.34203125 8.875 18.625 C9.03742187 19.85476562 9.19984375 21.08453125 9.3671875 22.3515625 C9.89772424 25.95003925 9.89772424 25.95003925 11.03125 29.09375 C12.03108073 32.0932422 12.39483324 34.72938758 12.625 37.875 C12.69976562 38.84179688 12.77453125 39.80859375 12.8515625 40.8046875 C12.90054688 41.52914062 12.94953125 42.25359375 13 43 C11.68 43 10.36 43 9 43 C7.094753 37.89665983 5.57410977 33.53657294 6 28 C5.34 28 4.68 28 4 28 C3.87882812 27.00097656 3.75765625 26.00195312 3.6328125 24.97265625 C3.46523438 23.68230469 3.29765625 22.39195313 3.125 21.0625 C2.88136719 19.13083984 2.88136719 19.13083984 2.6328125 17.16015625 C2.42398437 16.11730469 2.21515625 15.07445312 2 14 C-0.49092811 12.75453595 -1.41080733 13.2232422 -4 14 C-4.89674777 11.48910624 -5.13172674 10.35464891 -4.1875 7.8125 C-3 6 -3 6 -1 5 C-0.34444881 2.47266765 -0.34444881 2.47266765 0 0 Z " fill="#FFD91C" transform="translate(21,40)"/>
<path d="M0 0 C0.99 0.33 1.98 0.66 3 1 C3 2.32 3 3.64 3 5 C2.34 5 1.68 5 1 5 C1 8.96 1 12.92 1 17 C1.99 17.33 2.98 17.66 4 18 C4 18.66 4 19.32 4 20 C8.75404012 20.49544197 8.75404012 20.49544197 12.8125 18.5 C13.204375 18.005 13.59625 17.51 14 17 C14.66 17 15.32 17 16 17 C15.690625 16.071875 15.38125 15.14375 15.0625 14.1875 C14.375 12.125 13.6875 10.0625 13 8 C11.35 8 9.7 8 8 8 C7.67 6.68 7.34 5.36 7 4 C10.81489674 2.53273202 13.29011622 3.56663581 17 5 C17 5.66 17 6.32 17 7 C17.5775 6.67 18.155 6.34 18.75 6 C21 5 21 5 25 5 C25.66 6.98 26.32 8.96 27 11 C27.886875 10.175 28.77375 9.35 29.6875 8.5 C31.89553927 6.66170315 32.78195394 6.03549587 35.6875 5.5625 C38 6 38 6 41 8 C41.6875 11.625 41.6875 11.625 42 15 C42.66 15 43.32 15 44 15 C47.62870159 24.41002278 47.62870159 24.41002278 46 29 C44.68 29 43.36 29 42 29 C42 27.68 42 26.36 42 25 C41.34 25 40.68 25 40 25 C39.80664062 24.39671875 39.61328125 23.7934375 39.4140625 23.171875 C39.15367187 22.37265625 38.89328125 21.5734375 38.625 20.75 C38.36976563 19.96109375 38.11453125 19.1721875 37.8515625 18.359375 C37.04826333 16.13372042 36.10288338 14.09068328 35 12 C32.08447373 15.91294315 29.55701931 19.32894208 28 24 C26.35 24 24.7 24 23 24 C22.34 22.35 21.68 20.7 21 19 C20.236875 19.78375 19.47375 20.5675 18.6875 21.375 C15.31373646 24.67030392 13.88687574 25.92847776 9.125 26.3125 C5.3702622 26.22244171 2.97330071 25.41580682 0 23 C0 22.34 0 21.68 0 21 C-0.66 21 -1.32 21 -2 21 C-4.43425238 16.03006806 -5.34615998 12.65394631 -5 7 C-4.34 7 -3.68 7 -3 7 C-2.87625 6.030625 -2.7525 5.06125 -2.625 4.0625 C-2.41875 3.051875 -2.2125 2.04125 -2 1 C-1.34 0.67 -0.68 0.34 0 0 Z " fill="#FFD91C" transform="translate(93,54)"/>
<path d="M0 0 C0.99 0 1.98 0 3 0 C4.00259507 3.00778521 4.30314642 5.53820647 4.5625 8.6875 C4.64628906 9.68136719 4.73007813 10.67523438 4.81640625 11.69921875 C4.87699219 12.45847656 4.93757812 13.21773437 5 14 C5.53625 13.01 6.0725 12.02 6.625 11 C9 8 9 8 12 7.25 C15 8 15 8 17.25 10.6875 C18.69904013 13.43032597 19.85139795 16.12849487 21 19 C21.66 19.33 22.32 19.66 23 20 C23.268125 19.29875 23.53625 18.5975 23.8125 17.875 C27.35766423 9.2919708 27.35766423 9.2919708 30.0625 8.0625 C32 8 32 8 34 9 C34.94226666 11.78863965 35.78229993 14.5412763 36.5625 17.375 C37.00102955 18.92455632 37.43982141 20.47403844 37.87890625 22.0234375 C38.0704126 22.71356934 38.26191895 23.40370117 38.45922852 24.11474609 C38.93002411 25.75604795 39.46004442 27.38013326 40 29 C39.67 29.66 39.34 30.32 39 31 C37.68 30.67 36.36 30.34 35 30 C35 29.34 35 28.68 35 28 C34.34 28 33.68 28 33 28 C32.505 23.545 32.505 23.545 32 19 C28.88214887 19.64644661 28.88214887 19.64644661 28 22 C27.34 22 26.68 22 26 22 C25.71125 22.61875 25.4225 23.2375 25.125 23.875 C24 26 24 26 22 28 C21.01 28 20.02 28 19 28 C16.69 23.71 14.38 19.42 12 15 C11.34 15 10.68 15 10 15 C9.67 16.65 9.34 18.3 9 20 C8.34 20 7.68 20 7 20 C6.67 22.64 6.34 25.28 6 28 C4.33388095 28.042721 2.66617115 28.04063832 1 28 C-1.33175193 25.66824807 -0.52671083 20.0611792 -0.71875 16.90625 C-0.6785989 14.10949868 -0.6785989 14.10949868 -2 13 C-2.12487758 11.19072719 -2.17570846 9.37603893 -2.1875 7.5625 C-2.20167969 6.57378906 -2.21585938 5.58507813 -2.23046875 4.56640625 C-2 2 -2 2 0 0 Z " fill="#FFD91C" transform="translate(233,50)"/>
</svg>
